<svg width="448" height="512" viewBox="0 0 448 512" fill="none" xmlns="http://www.w3.org/2000/svg">
<g clip-path="url(#clip0_0_1)">
<g filter="url(#filter0_i_0_1)">
<path d="M221.6 148.7C224.7 161.3 224.8 174.5 222.1 187.2C219.3 199.1 213.6 211.9 205.6 222.1C191.1 238.6 173 249.1 151.1 254.1V472C151.1 482.6 147.8 492.8 140.3 500.3C132.8 507.8 122.6 512 111.1 512C101.4 512 91.22 507.8 83.71 500.3C76.21 492.8 71.1 482.6 71.1 472V254.1C50.96 250.1 31.96 238.9 18.3 222.4C10.19 212.2 4.529 200.3 1.755 187.5C-1.019 174.7 -0.831496 161.5 2.303 148.8L32.51 12.45C33.36 8.598 35.61 5.197 38.82 2.9C42.02 0.602005 45.97 -0.429695 49.89 0.00260486C53.82 0.430205 57.46 2.303 60.1 5.259C62.74 8.214 64.18 12.04 64.16 16V160H81.53L98.62 11.91C99.02 8.635 100.6 5.62101 103.1 3.434C105.5 1.248 108.7 0.0401049 111.1 0.0401049C115.3 0.0401049 118.5 1.248 120.9 3.434C123.4 5.62101 124.1 8.635 125.4 11.91L142.5 160H159.1V16C159.1 12.07 161.4 8.268 163.1 5.317C166.6 2.366 170.2 0.474005 174.1 0.00260486C178 -0.426195 181.1 0.619005 185.2 2.936C188.4 5.25301 190.6 8.677 191.5 12.55L221.6 148.7ZM448 472C448 482.6 443.8 492.8 436.3 500.3C428.8 507.8 418.6 512 408 512C397.4 512 387.2 507.8 379.7 500.3C372.2 492.8 368 482.6 368 472V352H351.2C342.8 352 334.4 350.3 326.6 347.1C318.9 343.8 311.8 339.1 305.8 333.1C299.9 327.1 295.2 320 291.1 312.2C288.8 304.4 287.2 296 287.2 287.6L287.1 173.8C288 136.9 299.1 100.8 319.8 70.28C340.5 39.71 369.8 16.05 404.1 2.339C408.1 0.401005 414.2 -0.320195 419.4 0.239105C424.6 0.798205 429.6 2.62 433.9 5.546C438.2 8.472 441.8 12.41 444.2 17.03C446.7 21.64 447.1 26.78 448 32V472Z" fill="#FAD656"/>
</g>
<path d="M220.624 148.916L220.626 148.927L220.629 148.939C223.691 161.383 223.792 174.426 221.124 186.981C218.355 198.745 212.719 211.395 204.83 221.461C190.479 237.783 172.574 248.172 150.877 253.125L150.1 253.303V254.1V472C150.1 482.398 146.865 492.321 139.593 499.593C132.29 506.896 122.348 511 111.1 511C101.676 511 91.7474 506.913 84.4166 499.592C77.0632 492.239 72.1 482.281 72.1 472V254.1V253.279L71.2948 253.119C51.3849 249.165 32.5906 238.09 19.0769 221.77C11.0651 211.692 5.47302 199.935 2.73232 187.288C-0.00942419 174.637 0.175938 161.591 3.27387 149.04L3.27674 149.028L3.27933 149.016L33.4863 12.6663L33.4865 12.6655C34.2831 9.05545 36.3921 5.86704 39.4019 3.71324L39.4033 3.71226C42.402 1.55884 46.105 0.591255 49.7804 0.99658L49.7818 0.996738C53.4656 1.39755 56.8786 3.15324 59.3542 5.92512L59.3543 5.92525C61.8284 8.69456 63.1788 12.281 63.16 15.995V16V160V161H64.16H81.53H82.4212L82.5234 160.115L99.6126 12.0312C99.6128 12.03 99.6129 12.0288 99.6131 12.0276C99.9842 8.99639 101.446 6.20933 103.758 4.18666L103.766 4.18005L103.773 4.1733C106.011 2.13482 108.978 1.0401 111.1 1.0401C115.094 1.0401 118.04 2.18206 120.227 4.1733L120.234 4.18005L120.242 4.18666C121.347 5.15357 122.073 6.31621 122.689 7.67631C123.077 8.53388 123.394 9.3983 123.736 10.331C123.947 10.9081 124.168 11.5114 124.422 12.1553L141.507 160.115L141.609 161H142.5H159.1H160.1V160V16C160.1 12.5178 162.079 9.08834 163.784 6.13249C163.816 6.07801 163.847 6.02369 163.878 5.96953C167.239 3.16474 170.619 1.43197 174.215 0.996021C177.801 0.602931 180.673 1.5321 184.658 3.77862C187.628 5.9456 189.68 9.1414 190.525 12.7708C190.525 12.7727 190.526 12.7745 190.526 12.7764L220.624 148.916ZM369 352V351H368H351.2C342.937 351 334.668 349.328 326.988 346.178C319.403 342.927 312.414 338.299 306.511 332.397C300.724 326.511 296.091 319.532 292.031 311.822C289.765 304.111 288.2 295.843 288.2 287.6V287.599L288.1 173.811C288.998 137.099 300.042 101.192 320.628 70.8413L320.628 70.8407C341.216 40.4355 370.358 16.904 404.471 3.26757L404.504 3.2544L404.536 3.23894C408.32 1.4056 414.219 0.687598 419.293 1.23337C424.332 1.77518 429.175 3.54058 433.337 6.37275C437.509 9.21136 440.994 13.0267 443.313 17.491L443.317 17.4989L443.321 17.5067C445.274 21.1084 445.884 25.0228 446.542 29.2415C446.687 30.1746 446.835 31.1226 447 32.0854V472C447 482.336 442.904 492.281 435.593 499.593C428.282 506.904 418.336 511 408 511C397.664 511 387.719 506.904 380.407 499.593C373.096 492.281 369 482.336 369 472V352Z" stroke="#808080" stroke-width="2"/>
</g>
<defs>
<filter id="filter0_i_0_1" x="-0.195267" y="-0.0937805" width="459.195" height="520.094" filterUnits="userSpaceOnUse" color-interpolation-filters="sRGB">
<feFlood flood-opacity="0" result="BackgroundImageFix"/>
<feBlend mode="normal" in="SourceGraphic" in2="BackgroundImageFix" result="shape"/>
<feColorMatrix in="SourceAlpha" type="matrix" values="0 0 0 0 0 0 0 0 0 0 0 0 0 0 0 0 0 0 127 0" result="hardAlpha"/>
<feOffset dx="11" dy="8"/>
<feGaussianBlur stdDeviation="6"/>
<feComposite in2="hardAlpha" operator="arithmetic" k2="-1" k3="1"/>
<feColorMatrix type="matrix" values="0 0 0 0 0 0 0 0 0 0 0 0 0 0 0 0 0 0 0.25 0"/>
<feBlend mode="normal" in2="shape" result="effect1_innerShadow_0_1"/>
</filter>
<clipPath id="clip0_0_1">
<rect width="448" height="512" fill="white"/>
</clipPath>
</defs>
</svg>
