<svg width="448" height="320" viewBox="0 0 448 320" fill="none" xmlns="http://www.w3.org/2000/svg">
<path id="Vector" d="M96 128C84.72 128 74.05 130.3 64 133.9V128C64 92.7 92.7 64 128 64C145.67 64 160 49.67 160 32C160 14.33 145.7 0 128 0C57.42 0 0 57.4 0 128V224C0 277.02 42.98 320 96 320C149.02 320 192 277.02 192 224C192 170.98 149 128 96 128ZM352 128C340.72 128 330.05 130.305 320 133.879V128C320 92.7 348.7 64 384 64C401.67 64 416 49.67 416 32C416 14.33 401.67 0 384 0C313.42 0 256 57.42 256 128V224C256 277.02 298.98 320 352 320C405.02 320 448 277.02 448 224C448 170.98 405 128 352 128Z" fill="#C2C0C0"/>
</svg>
